<svg width="44" height="44" viewBox="0 0 44 44" fill="none" xmlns="http://www.w3.org/2000/svg">
<g id="Group">
<g id="Group_2">
<g id="Group_3">
<path id="Vector" d="M8.29894 43.9092C3.87999 43.9092 0.244141 40.3101 0.244141 35.9358V7.97342C0.244141 3.59911 3.82405 0 8.29894 0H11.0957C15.235 0 18.5352 3.15615 19.0946 7.14286C19.2624 8.25028 19.9336 8.13953 20.2693 7.91805C22.0033 6.64452 23.3457 4.98339 24.2407 3.0454C24.5204 2.38095 25.1357 1.93798 25.8629 1.88261C25.9188 1.88261 25.9747 1.88261 26.0866 1.88261C26.7019 1.88261 27.2613 2.21484 27.7088 2.71318C30.0581 5.26024 33.8617 7.6412 37.8332 7.80731C38.2807 7.80731 38.6722 7.80731 39.1197 7.75194C39.1756 7.75194 39.2316 7.75194 39.3435 7.75194C39.9588 7.75194 40.574 8.02879 40.9656 8.5825C41.4131 9.13621 41.469 9.91141 41.1893 10.5759C39.3994 14.6179 39.8469 19.3245 42.4759 22.8682C42.9234 23.4219 42.9793 24.1971 42.6996 24.8616C42.4199 25.526 41.8046 25.969 41.0775 26.0244C36.6585 26.4673 32.7989 29.2359 30.953 33.278C30.6734 33.9424 30.0581 34.3854 29.3309 34.4408C29.275 34.4408 29.1631 34.4408 29.1072 34.4408C28.4919 34.4408 27.8766 34.1639 27.485 33.6102C27.4291 33.4994 27.3731 33.4441 27.2613 33.3333C27.1494 33.2226 27.0935 33.1118 26.9816 33.0011C26.9256 32.9457 26.9256 32.8904 26.8697 32.835L26.8138 32.7796C26.0307 31.8383 25.0798 31.0631 24.017 30.3987C22.8423 29.6788 21.5558 29.2359 20.2693 28.8483C18.9827 28.4053 19.1505 29.7342 19.1505 29.7342V35.9911C19.1505 40.3654 15.5147 43.9646 11.0957 43.9646H8.29894V43.9092Z" fill="white"/>
</g>
<g id="Group_4">
<g id="Group_5">
<path id="Vector_2" d="M14.6753 12.237C19.8214 11.6833 24.2963 8.52715 26.4219 3.82062C29.4424 7.97344 34.4767 10.2437 39.6228 9.68994C37.4972 14.3965 38.0566 19.8228 41.1331 23.9757C35.9869 24.5294 31.5121 27.6855 29.3865 32.392C26.3659 28.2392 21.3317 25.969 16.1856 26.5227C18.2552 21.8162 17.6958 16.3898 14.6753 12.237Z" fill="url(#paint0_linear_106_41)"/>
<path id="Vector_3" opacity="0.5" d="M19.6538 24.1418L20.2691 24.2525C20.4928 24.3079 20.7165 24.3632 20.9403 24.4186C21.8353 24.6955 22.6743 25.0277 23.4015 25.4707C24.9118 26.3012 26.0305 27.2979 26.8695 28.2946C27.6526 29.2359 28.156 30.1218 28.4357 30.7863C28.6035 31.1185 28.9391 31.8383 28.9391 31.8383C26.9254 28.959 21.7234 25.9136 16.1298 26.5227C18.535 21.3178 17.1366 16.1683 15.3467 13.3998C15.3467 13.3998 15.6264 13.6213 16.1298 14.0642C16.6332 14.5072 17.3044 15.227 17.9757 16.2791C18.6469 17.3311 19.2622 18.7154 19.5978 20.3765C19.7097 21.2071 19.8216 22.093 19.7097 23.0343C19.7097 23.2558 19.6538 23.4773 19.6538 23.7542V24.1418C19.5978 24.1418 19.5978 24.0864 19.6538 24.1418C19.6538 24.1418 19.5978 24.1418 19.6538 24.1418Z" fill="#56BEFF"/>
<g id="Group_6">
<g id="Group_7">
<path id="Vector_4" opacity="0.3" d="M25.0234 2.32557C25.9184 8.52712 27.149 13.4551 27.7643 13.3998C28.3796 13.289 28.1559 8.25027 27.2609 1.99335L25.0234 2.32557Z" fill="url(#paint1_linear_106_41)"/>
<path id="Vector_5" opacity="0.3" d="M12.7734 13.0122C18.7586 15.0609 23.7369 16.2237 23.9607 15.67C24.1844 15.1163 19.4858 12.9568 13.5006 10.9081L12.7734 13.0122Z" fill="url(#paint2_linear_106_41)"/>
<path id="Vector_6" opacity="0.3" d="M15.9617 28.2946C20.884 24.3078 24.4639 20.7087 24.0724 20.2104C23.6808 19.7121 19.4297 22.536 14.5073 26.5227L15.9617 28.2946Z" fill="url(#paint3_linear_106_41)"/>
<path id="Vector_7" opacity="0.3" d="M30.5612 33.7209C30.0018 27.464 28.995 22.4806 28.3797 22.536C27.8203 22.5914 27.7644 27.6855 28.3238 33.9424L30.5612 33.7209Z" fill="url(#paint4_linear_106_41)"/>
<path id="Vector_8" opacity="0.3" d="M43.147 23.7541C37.4415 20.9302 32.6869 19.1583 32.4073 19.6567C32.1276 20.2104 36.4906 22.9236 42.1401 25.7475L43.147 23.7541Z" fill="url(#paint5_linear_106_41)"/>
<path id="Vector_9" opacity="0.3" d="M40.6297 7.64117C35.4276 11.2957 31.568 14.5625 31.9036 15.0609C32.2392 15.5592 36.7141 13.0675 41.9162 9.46842L40.6297 7.64117Z" fill="url(#paint6_linear_106_41)"/>
</g>
</g>
</g>
<path id="Vector_10" d="M10.7599 41.9158H9.30559C5.61381 41.9158 2.59326 38.9258 2.59326 35.2713V8.63786C2.59326 4.98338 5.61381 1.99335 9.30559 1.99335H10.7599C14.4517 1.99335 17.4723 4.98338 17.4723 8.63786V35.2713C17.4723 38.9258 14.4517 41.9158 10.7599 41.9158Z" fill="url(#paint7_linear_106_41)"/>
<path id="Vector_11" opacity="0.5" d="M15.2906 33.3333H4.83057V8.25028C4.83057 5.98007 6.67646 4.15283 8.96984 4.15283H11.1513C13.4447 4.15283 15.2906 5.98007 15.2906 8.25028V33.3333Z" fill="url(#paint8_linear_106_41)"/>
<path id="Vector_12" d="M13.8364 15.1162C14.1161 15.1162 14.3398 14.8947 14.3398 14.6179C14.3398 14.341 14.1161 14.1196 13.8364 14.1196H11.9345V11.6279H13.8364C14.1161 11.6279 14.3398 11.4064 14.3398 11.1295C14.3398 10.8527 14.1161 10.6312 13.8364 10.6312H11.9345V8.08411C11.9345 6.9767 11.0396 6.09076 9.92085 6.09076C8.80213 6.09076 7.90715 6.9767 7.90715 8.08411V10.6312H6.11719C5.83751 10.6312 5.61377 10.8527 5.61377 11.1295C5.61377 11.4064 5.83751 11.6279 6.11719 11.6279H7.90715V14.1196H6.11719C5.83751 14.1196 5.61377 14.341 5.61377 14.6179C5.61377 14.8947 5.83751 15.1162 6.11719 15.1162H7.90715V17.6079H6.11719C5.83751 17.6079 5.61377 17.8294 5.61377 18.1063C5.61377 18.3831 5.83751 18.6046 6.11719 18.6046H7.90715V21.0963H6.11719C5.83751 21.0963 5.61377 21.3178 5.61377 21.5946C5.61377 21.8715 5.83751 22.093 6.11719 22.093H7.90715V24.5847H6.11719C5.83751 24.5847 5.61377 24.8062 5.61377 25.083C5.61377 25.3599 5.83751 25.5813 6.11719 25.5813H7.90715V28.073H6.11719C5.83751 28.073 5.61377 28.2945 5.61377 28.5714C5.61377 28.8482 5.83751 29.0697 6.11719 29.0697H7.90715V31.7829C6.56468 32.5027 5.72564 33.8316 5.72564 35.382C5.72564 37.6522 7.57153 39.4795 9.80897 39.4795C12.1024 39.4795 13.9482 37.6522 13.9482 35.382C13.9482 33.9424 13.1651 32.6135 11.9345 31.8936V29.0697H13.8364C14.1161 29.0697 14.3398 28.8482 14.3398 28.5714C14.3398 28.2945 14.1161 28.073 13.8364 28.073H11.9345V25.5813H13.8364C14.1161 25.5813 14.3398 25.3599 14.3398 25.083C14.3398 24.8062 14.1161 24.5847 13.8364 24.5847H11.9345V22.093H13.8364C14.1161 22.093 14.3398 21.8715 14.3398 21.5946C14.3398 21.3178 14.1161 21.0963 13.8364 21.0963H11.9345V18.6046H13.8364C14.1161 18.6046 14.3398 18.3831 14.3398 18.1063C14.3398 17.8294 14.1161 17.6079 13.8364 17.6079H11.9345V15.1162H13.8364Z" fill="url(#paint9_linear_106_41)"/>
<path id="Vector_13" d="M10.8716 8.02878C10.8716 7.47507 10.4241 7.0321 9.86476 7.0321C9.3054 7.0321 8.85791 7.47507 8.85791 8.02878V23.6988H10.8716V8.02878Z" fill="white"/>
<path id="Vector_14" d="M10.872 32.5028V23.7542H8.85827V32.4474C7.57174 32.835 6.67676 33.9978 6.67676 35.3821C6.67676 37.0986 8.07516 38.4275 9.75324 38.4275C11.4873 38.4275 12.8857 37.0432 12.8857 35.3821C12.8857 34.0532 12.0466 32.9457 10.872 32.5028Z" fill="url(#paint10_linear_106_41)"/>
<path id="Vector_15" opacity="0.6" d="M11.9903 34.7176C11.9903 35.825 11.0394 36.7663 9.92071 36.7663C8.80199 36.7663 7.85107 35.825 7.85107 34.7176C7.85107 33.6102 8.80199 32.6689 9.92071 32.6689C11.0394 32.6689 11.9903 33.6102 11.9903 34.7176Z" fill="url(#paint11_linear_106_41)"/>
<path id="Vector_16" opacity="0.6" d="M10.3122 24.1971H9.36133V32.0598H10.3122V24.1971Z" fill="url(#paint12_linear_106_41)"/>
<path id="Vector_17" opacity="0.5" d="M10.0329 41.9158C9.30576 41.9158 8.5786 41.9158 7.79549 41.8604C7.06832 41.7497 6.34115 41.5282 5.72586 41.1406C5.11056 40.8084 4.60713 40.3654 4.21558 39.9224C3.82403 39.4795 3.48841 39.0365 3.26467 38.5382C2.81718 37.6522 2.64937 36.8217 2.64937 36.2679C2.59344 35.9911 2.64937 35.7696 2.64937 35.6589C2.64937 35.4927 2.64937 35.4374 2.64937 35.4374C2.64937 35.4374 2.64937 35.4927 2.70531 35.6589C2.70531 35.825 2.76124 35.9911 2.81718 36.2679C2.92905 36.8217 3.1528 37.5415 3.71216 38.372C3.9359 38.7596 4.32745 39.1472 4.71901 39.5348C5.11056 39.9224 5.61398 40.2547 6.17334 40.5315C6.73271 40.8084 7.348 40.9745 8.01924 41.0852C8.63453 41.1406 9.41764 41.1406 10.1448 41.1406C10.872 41.1406 11.6551 41.196 12.2704 41.0852C12.9416 41.0298 13.5569 40.8084 14.1163 40.5315C14.6756 40.2547 15.1791 39.9224 15.5706 39.5348C15.9622 39.1472 16.2978 38.7596 16.5775 38.372C17.0809 37.5968 17.3606 36.8217 17.4724 36.2679C17.5284 35.9911 17.5284 35.7696 17.5843 35.6589C17.5843 35.4927 17.6402 35.4374 17.6402 35.4374C17.6402 35.4374 17.6402 35.4927 17.6402 35.6589C17.6402 35.825 17.6402 35.9911 17.6402 36.2679C17.5843 36.8217 17.4724 37.6522 17.0249 38.5382C16.8012 38.9811 16.4656 39.4241 16.074 39.9224C15.6825 40.3654 15.1231 40.753 14.5638 41.1406C13.9485 41.4728 13.2772 41.7497 12.4941 41.8604C11.5432 41.9158 10.816 41.9158 10.0329 41.9158Z" fill="#56BEFF"/>
<path id="Vector_18" d="M10.0328 4.1528C10.5363 4.1528 11.0397 4.1528 11.4872 4.1528C11.9906 4.1528 12.494 4.26354 12.9415 4.48502C13.8365 4.87262 14.4518 5.53707 14.7874 6.14615C15.123 6.75523 15.2349 7.30894 15.2349 7.69654C15.2349 7.86265 15.2349 8.02876 15.2349 8.13951C15.2349 8.25025 15.2349 8.30562 15.2349 8.30562C15.2349 8.30562 15.2349 8.25025 15.2349 8.13951C15.2349 8.02876 15.179 7.91802 15.123 7.75191C15.0111 7.41968 14.8433 6.92134 14.4518 6.42301C14.0602 5.92467 13.5009 5.4817 12.7178 5.20484C12.3822 4.98336 11.9347 4.92799 11.5431 4.92799C11.0397 4.92799 10.5922 4.92799 10.0888 4.92799C9.58535 4.92799 9.08192 4.92799 8.63443 4.92799C8.18695 4.92799 7.79539 4.98336 7.40384 5.0941C6.62074 5.31559 6.06138 5.81392 5.66982 6.31226C5.27827 6.8106 5.11046 7.30894 4.99859 7.64117C4.94265 7.80728 4.94265 7.97339 4.88672 8.02876C4.88672 8.13951 4.88672 8.19488 4.88672 8.19488C4.88672 8.19488 4.88672 8.13951 4.88672 8.02876C4.88672 7.91802 4.88672 7.80728 4.88672 7.5858C4.88672 7.1982 4.99859 6.64449 5.33421 6.03541C5.66982 5.42633 6.28512 4.76188 7.1801 4.37428C7.62759 4.20817 8.13101 4.09742 8.63443 4.04205C9.02599 4.1528 9.52941 4.1528 10.0328 4.1528Z" fill="white"/>
</g>
</g>
</g>
<defs>
<linearGradient id="paint0_linear_106_41" x1="33.0249" y1="6.76355" x2="22.9518" y2="29.5234" gradientUnits="userSpaceOnUse">
<stop stop-color="#C2E8FF"/>
<stop offset="1" stop-color="#38B3FF"/>
</linearGradient>
<linearGradient id="paint1_linear_106_41" x1="23.8454" y1="3.28301" x2="30.3061" y2="11.3983" gradientUnits="userSpaceOnUse">
<stop offset="0.1337" stop-color="#004A87"/>
<stop offset="0.2061" stop-color="#12578F"/>
<stop offset="0.351" stop-color="#4077A5"/>
<stop offset="0.555" stop-color="#8AACC8"/>
<stop offset="0.8082" stop-color="#F0F4F8"/>
<stop offset="0.8449" stop-color="white"/>
</linearGradient>
<linearGradient id="paint2_linear_106_41" x1="13.0516" y1="14.4834" x2="23.2663" y2="12.3606" gradientUnits="userSpaceOnUse">
<stop offset="0.1337" stop-color="#004A87"/>
<stop offset="0.2061" stop-color="#12578F"/>
<stop offset="0.351" stop-color="#4077A5"/>
<stop offset="0.555" stop-color="#8AACC8"/>
<stop offset="0.8082" stop-color="#F0F4F8"/>
<stop offset="0.8449" stop-color="white"/>
</linearGradient>
<linearGradient id="paint3_linear_106_41" x1="17.361" y1="28.8085" x2="20.8433" y2="19.0682" gradientUnits="userSpaceOnUse">
<stop offset="0.1337" stop-color="#004A87"/>
<stop offset="0.2061" stop-color="#12578F"/>
<stop offset="0.351" stop-color="#4077A5"/>
<stop offset="0.555" stop-color="#8AACC8"/>
<stop offset="0.8082" stop-color="#F0F4F8"/>
<stop offset="0.8449" stop-color="white"/>
</linearGradient>
<linearGradient id="paint4_linear_106_41" x1="31.8042" y1="32.848" x2="25.7639" y2="24.4223" gradientUnits="userSpaceOnUse">
<stop offset="0.1337" stop-color="#004A87"/>
<stop offset="0.2061" stop-color="#12578F"/>
<stop offset="0.351" stop-color="#4077A5"/>
<stop offset="0.555" stop-color="#8AACC8"/>
<stop offset="0.8082" stop-color="#F0F4F8"/>
<stop offset="0.8449" stop-color="white"/>
</linearGradient>
<linearGradient id="paint5_linear_106_41" x1="43.06" y1="22.2369" x2="32.6519" y2="23.0045" gradientUnits="userSpaceOnUse">
<stop offset="0.1337" stop-color="#004A87"/>
<stop offset="0.2061" stop-color="#12578F"/>
<stop offset="0.351" stop-color="#4077A5"/>
<stop offset="0.555" stop-color="#8AACC8"/>
<stop offset="0.8082" stop-color="#F0F4F8"/>
<stop offset="0.8449" stop-color="white"/>
</linearGradient>
<linearGradient id="paint6_linear_106_41" x1="39.2577" y1="7.03474" x2="35.0691" y2="16.4981" gradientUnits="userSpaceOnUse">
<stop offset="0.1337" stop-color="#004A87"/>
<stop offset="0.2061" stop-color="#12578F"/>
<stop offset="0.351" stop-color="#4077A5"/>
<stop offset="0.555" stop-color="#8AACC8"/>
<stop offset="0.8082" stop-color="#F0F4F8"/>
<stop offset="0.8449" stop-color="white"/>
</linearGradient>
<linearGradient id="paint7_linear_106_41" x1="0.68036" y1="5.91035" x2="19.1189" y2="38.1728" gradientUnits="userSpaceOnUse">
<stop stop-color="#C2E8FF"/>
<stop offset="1" stop-color="#38B3FF"/>
</linearGradient>
<linearGradient id="paint8_linear_106_41" x1="10.0415" y1="4.17825" x2="10.0415" y2="33.3313" gradientUnits="userSpaceOnUse">
<stop offset="0.0534759" stop-color="white"/>
<stop offset="0.2359" stop-color="#C0C0C0"/>
<stop offset="0.5477" stop-color="#5A5A5A"/>
<stop offset="0.7645" stop-color="#191919"/>
<stop offset="0.8663"/>
</linearGradient>
<linearGradient id="paint9_linear_106_41" x1="2.10384" y1="10.1796" x2="16.8707" y2="36.0177" gradientUnits="userSpaceOnUse">
<stop stop-color="#7ACDFF"/>
<stop offset="0.1573" stop-color="#74C8FC"/>
<stop offset="0.3736" stop-color="#62BAF2"/>
<stop offset="0.6239" stop-color="#45A2E3"/>
<stop offset="0.898" stop-color="#1D82CD"/>
<stop offset="1" stop-color="#0C74C4"/>
</linearGradient>
<linearGradient id="paint10_linear_106_41" x1="13.387" y1="27.636" x2="6.48104" y2="34.7833" gradientUnits="userSpaceOnUse">
<stop stop-color="#A6DDFF"/>
<stop offset="0.0750227" stop-color="#B1E1FF"/>
<stop offset="0.2044" stop-color="#BEE6FF"/>
<stop offset="0.3262" stop-color="#C2E8FF"/>
<stop offset="0.4359" stop-color="#B2E2FF"/>
<stop offset="0.6504" stop-color="#88D2FF"/>
<stop offset="0.9464" stop-color="#45B8FF"/>
<stop offset="1" stop-color="#38B3FF"/>
</linearGradient>
<linearGradient id="paint11_linear_106_41" x1="9.90488" y1="32.6667" x2="9.90488" y2="36.7574" gradientUnits="userSpaceOnUse">
<stop offset="0.0534759" stop-color="#FFFF5F"/>
<stop offset="0.2359" stop-color="#C0C048"/>
<stop offset="0.5477" stop-color="#5A5A21"/>
<stop offset="0.7645" stop-color="#191909"/>
<stop offset="0.8663"/>
</linearGradient>
<linearGradient id="paint12_linear_106_41" x1="9.8421" y1="24.1746" x2="9.8421" y2="32.0438" gradientUnits="userSpaceOnUse">
<stop offset="0.0534759" stop-color="white"/>
<stop offset="0.2359" stop-color="#C0C0C0"/>
<stop offset="0.5477" stop-color="#5A5A5A"/>
<stop offset="0.7645" stop-color="#191919"/>
<stop offset="0.8663"/>
</linearGradient>
</defs>
</svg>
