<svg width="22" height="23" viewBox="0 0 22 23" fill="none" xmlns="http://www.w3.org/2000/svg">
<g id="Group">
<g id="Group_2">
<path id="Vector" d="M4.78066 22.8835C2.61627 22.8835 0.835449 21.0078 0.835449 18.7281V4.15538C0.835449 1.87569 2.61627 0 4.78066 0H6.15052C7.41079 0 8.53408 0.63485 9.27381 1.61598C9.3012 1.61598 9.3012 1.61598 9.3286 1.61598C9.79436 1.61598 10.2601 1.87569 10.4793 2.30855L11.219 3.66482C11.3012 3.63596 11.3834 3.6071 11.493 3.57825V2.01998C11.493 1.24084 12.0957 0.605993 12.8355 0.605993C13.5752 0.605993 14.1779 1.24084 14.1779 2.01998V3.57825C14.2601 3.6071 14.3423 3.63596 14.4519 3.66482L15.1642 2.30855C15.4108 1.87569 15.8492 1.61598 16.3149 1.61598C16.5615 1.61598 16.7807 1.6737 16.9724 1.81798C17.2738 2.01998 17.493 2.30855 17.6026 2.68368C17.6848 3.05882 17.6574 3.43396 17.4656 3.75139L16.7259 5.10766C16.7807 5.16537 16.8629 5.25194 16.9176 5.30966L18.2053 4.53052C18.3971 4.41509 18.6437 4.32852 18.8629 4.32852C19.3286 4.32852 19.7944 4.58824 20.0135 5.02109C20.3697 5.68479 20.1505 6.5505 19.5204 6.95449L18.2327 7.73363C18.2601 7.8202 18.2875 7.90677 18.3149 8.0222H19.8218C20.5615 8.0222 21.1642 8.65705 21.1642 9.43618C21.1642 10.2153 20.5615 10.8502 19.8218 10.8502H18.3423C18.3149 10.9367 18.2875 11.0233 18.2601 11.1387L19.5478 11.9179C20.1779 12.293 20.3971 13.1587 20.0409 13.8513C19.7944 14.2841 19.356 14.5438 18.8902 14.5438C18.6437 14.5438 18.4245 14.4861 18.2327 14.3418L16.945 13.5627C16.8902 13.6204 16.8081 13.707 16.7533 13.7647L17.493 15.121C17.6848 15.4384 17.7122 15.8135 17.63 16.1887C17.5478 16.5638 17.3286 16.8524 16.9998 17.0544C16.8081 17.1698 16.5615 17.2564 16.3423 17.2564C15.8765 17.2564 15.4108 16.9967 15.1916 16.5638L14.4519 15.2075C14.3697 15.2364 14.2875 15.2653 14.1779 15.2941V16.8524C14.1779 17.6315 13.5752 18.2664 12.8355 18.2664C12.0957 18.2664 11.493 17.6315 11.493 16.8524V15.2941C11.4108 15.2653 11.3286 15.2364 11.219 15.2075L10.4793 16.5638C10.3697 16.737 10.2601 16.8812 10.0957 16.9967V18.7858C10.0957 21.0655 8.3149 22.9412 6.15052 22.9412H4.78066V22.8835Z" fill="white"/>
<g id="Group_3">
<path id="Vector_2" d="M19.822 9.03219H17.4933C17.4385 8.39734 17.3015 7.79134 17.0549 7.24306L19.0549 6.03108C19.2193 5.91565 19.2741 5.71365 19.1919 5.51165C19.0823 5.33851 18.8905 5.2808 18.6988 5.36737L16.6988 6.57936C16.37 6.05993 15.959 5.62708 15.4659 5.2808L16.6166 3.17425C16.7261 3.00111 16.644 2.77025 16.4796 2.65483C16.3152 2.5394 16.096 2.62597 15.9864 2.79911L14.8357 4.90566C14.3152 4.64595 13.7398 4.47281 13.1371 4.44395V2.01998C13.1371 1.81798 12.9727 1.64484 12.7809 1.64484C12.5892 1.64484 12.4248 1.81798 12.4248 2.01998V4.47281C11.822 4.53052 11.2467 4.67481 10.7261 4.93452L9.57546 2.82797C9.52067 2.65483 9.30149 2.59711 9.13711 2.68368C8.97272 2.79911 8.91793 3.00111 9.00012 3.20311L10.1508 5.30966C9.65765 5.65594 9.2467 6.08879 8.91793 6.60821L6.91793 5.39623C6.75354 5.2808 6.53437 5.36737 6.42478 5.54051C6.31519 5.71365 6.39738 5.94451 6.56176 6.05993L8.56176 7.27192C8.31519 7.8202 8.1508 8.42619 8.12341 9.06104H5.79464C5.60286 9.06104 5.43848 9.23418 5.43848 9.43618C5.43848 9.63818 5.60286 9.81132 5.79464 9.81132H8.12341C8.1782 10.4462 8.31519 11.0522 8.56176 11.6004L6.56176 12.8124C6.39738 12.9279 6.34259 13.1299 6.42478 13.3319C6.53437 13.505 6.72615 13.5627 6.91793 13.4761L8.91793 12.2642C9.2467 12.7836 9.65765 13.2164 10.1508 13.5627L9.00012 15.6693C8.89053 15.8424 8.97272 16.0733 9.13711 16.1887C9.30149 16.3041 9.52067 16.2175 9.63026 16.0444L10.7809 13.9378C11.3015 14.1976 11.8768 14.3707 12.4796 14.3996V16.8524C12.4796 17.0544 12.644 17.2275 12.8357 17.2275C13.0275 17.2275 13.1919 17.0544 13.1919 16.8524V14.3996C13.7946 14.3418 14.37 14.1976 14.8905 13.9378L16.0412 16.0444C16.1508 16.2175 16.3426 16.2752 16.5344 16.1887C16.6988 16.0733 16.7535 15.8713 16.6714 15.6693L15.5207 13.5627C16.0138 13.2164 16.4248 12.7836 16.7535 12.2642L18.7535 13.4761C18.9179 13.5916 19.1371 13.505 19.2467 13.3319C19.3563 13.1587 19.2741 12.9279 19.1097 12.8124L17.0549 11.5427C17.3015 10.9945 17.4659 10.3885 17.4933 9.75361H19.822C20.0138 9.75361 20.1782 9.58047 20.1782 9.37847C20.1782 9.20533 20.0138 9.03219 19.822 9.03219Z" fill="url(#paint0_linear_16358_2187)"/>
<path id="Vector_3" d="M12.8904 4.79023C13.2739 4.79023 13.6575 4.8768 14.0136 4.96337C14.3698 5.0788 14.6986 5.25194 14.9726 5.42508C15.5479 5.80022 15.9589 6.29078 16.2328 6.75249C16.5068 7.2142 16.6438 7.6182 16.6986 7.90676C16.726 8.05105 16.726 8.16648 16.7534 8.25305C16.7534 8.33962 16.7534 8.36847 16.7534 8.36847C16.7534 8.36847 16.7534 8.33962 16.726 8.25305C16.6986 8.16648 16.6712 8.07991 16.6164 7.93562C16.5342 7.67591 16.3424 7.30077 16.0684 6.89678C15.7671 6.49278 15.3561 6.08878 14.8082 5.77136C14.5342 5.62708 14.2328 5.48279 13.9041 5.39622C13.5753 5.30965 13.2191 5.25194 12.863 5.25194C12.5068 5.25194 12.1506 5.30965 11.8493 5.39622C11.5205 5.51165 11.2191 5.62708 10.9452 5.80022C10.3972 6.11764 9.95885 6.52164 9.65748 6.92563C9.35611 7.32963 9.19173 7.70477 9.10954 7.96448C9.05474 8.10876 9.05474 8.22419 9.05474 8.2819C9.05474 8.36847 9.02734 8.39733 9.02734 8.39733C9.02734 8.39733 9.02734 8.36847 9.02734 8.2819C9.02734 8.19533 9.02734 8.07991 9.05474 7.93562C9.08214 7.64705 9.21912 7.2142 9.4931 6.78135C9.76707 6.3485 10.178 5.85793 10.7534 5.48279C11.0273 5.28079 11.3561 5.13651 11.7123 5.02108C12.0958 4.84794 12.4794 4.79023 12.8904 4.79023Z" fill="white"/>
</g>
<g id="Group_4">
<path id="Vector_4" d="M5.82178 21.8446H5.10945C3.30123 21.8446 1.82178 20.2864 1.82178 18.3818V4.50168C1.82178 2.59713 3.30123 1.03886 5.10945 1.03886H5.82178C7.63 1.03886 9.10945 2.59713 9.10945 4.50168V18.3818C9.10945 20.2864 7.63 21.8446 5.82178 21.8446Z" fill="url(#paint1_linear_16358_2187)"/>
<path id="Vector_5" opacity="0.5" d="M8.01337 17.3718H2.91748V4.29969C2.91748 3.11656 3.82159 2.16429 4.94488 2.16429H6.01337C7.13666 2.16429 8.04077 3.11656 8.04077 4.29969V17.3718H8.01337Z" fill="url(#paint2_linear_16358_2187)"/>
<path id="Vector_6" d="M7.30138 7.87793C7.43836 7.87793 7.54795 7.76251 7.54795 7.61822C7.54795 7.47394 7.43836 7.35851 7.30138 7.35851H6.34247V6.05995H7.30138C7.43836 6.05995 7.54795 5.94453 7.54795 5.80024C7.54795 5.65596 7.43836 5.54053 7.30138 5.54053H6.34247V4.21312C6.34247 3.63598 5.90412 3.17427 5.35617 3.17427C4.80823 3.17427 4.36987 3.63598 4.36987 4.21312V5.54053H3.49316C3.35617 5.54053 3.24658 5.65596 3.24658 5.80024C3.24658 5.94453 3.35617 6.05995 3.49316 6.05995H4.36987V7.35851H3.49316C3.35617 7.35851 3.24658 7.47394 3.24658 7.61822C3.24658 7.76251 3.35617 7.87793 3.49316 7.87793H4.36987V9.17649H3.49316C3.35617 9.17649 3.24658 9.29192 3.24658 9.4362C3.24658 9.58049 3.35617 9.69591 3.49316 9.69591H4.36987V10.9945H3.49316C3.35617 10.9945 3.24658 11.1099 3.24658 11.2542C3.24658 11.3985 3.35617 11.5139 3.49316 11.5139H4.36987V12.8125H3.49316C3.35617 12.8125 3.24658 12.9279 3.24658 13.0722C3.24658 13.2164 3.35617 13.3319 3.49316 13.3319H4.36987V14.6304H3.49316C3.35617 14.6304 3.24658 14.7459 3.24658 14.8901C3.24658 15.0344 3.35617 15.1499 3.49316 15.1499H4.36987V16.5638C3.71234 16.939 3.30138 17.6315 3.30138 18.4395C3.30138 19.6227 4.20549 20.5749 5.32877 20.5749C6.45206 20.5749 7.35617 19.6227 7.35617 18.4395C7.35617 17.6893 6.97261 16.9967 6.36987 16.6215V15.1499H7.32877C7.46576 15.1499 7.57535 15.0344 7.57535 14.8901C7.57535 14.7459 7.46576 14.6304 7.32877 14.6304H6.36987V13.3319H7.32877C7.46576 13.3319 7.57535 13.2164 7.57535 13.0722C7.57535 12.9279 7.46576 12.8125 7.32877 12.8125H6.36987V11.5139H7.32877C7.46576 11.5139 7.57535 11.3985 7.57535 11.2542C7.57535 11.1099 7.46576 10.9945 7.32877 10.9945H6.36987V9.69591H7.32877C7.46576 9.69591 7.57535 9.58049 7.57535 9.4362C7.57535 9.29192 7.46576 9.17649 7.32877 9.17649H6.36987V7.87793H7.30138Z" fill="url(#paint3_linear_16358_2187)"/>
<path id="Vector_7" d="M5.87657 16.939V7.5605C5.5752 7.5605 5.21904 7.5605 4.89027 7.5605V16.8813C4.26013 17.0833 3.82178 17.6892 3.82178 18.4107C3.82178 19.3052 4.50671 19.9978 5.32863 19.9978C6.17794 19.9978 6.83548 19.2764 6.83548 18.4107C6.86287 17.747 6.45191 17.1698 5.87657 16.939Z" fill="url(#paint4_linear_16358_2187)"/>
<path id="Vector_8" d="M5.87644 4.18425C5.87644 3.89568 5.65726 3.66482 5.38329 3.66482C5.10931 3.66482 4.89014 3.89568 4.89014 4.18425V7.56049C5.2189 7.56049 5.57507 7.56049 5.87644 7.56049V4.18425Z" fill="white"/>
<path id="Vector_9" opacity="0.6" d="M6.39703 18.0932C6.39703 18.6704 5.93127 19.1609 5.38333 19.1609C4.83538 19.1609 4.36963 18.6704 4.36963 18.0932C4.36963 17.5161 4.83538 17.0255 5.38333 17.0255C5.95867 17.0255 6.39703 17.5161 6.39703 18.0932Z" fill="url(#paint5_linear_16358_2187)"/>
<path id="Vector_10" opacity="0.6" d="M5.62982 7.76249H5.16406V16.6504H5.62982V7.76249Z" fill="url(#paint6_linear_16358_2187)"/>
<path id="Vector_11" opacity="0.5" d="M5.46553 21.8446C5.10936 21.8446 4.7532 21.8446 4.36964 21.7869C4.01347 21.7292 3.65731 21.6138 3.35594 21.4118C3.05457 21.2386 2.80799 21.0078 2.61621 20.7769C2.42443 20.5461 2.26005 20.3152 2.15046 20.0555C1.93128 19.5938 1.84909 19.161 1.84909 18.8724C1.82169 18.7281 1.84909 18.6127 1.84909 18.555C1.84909 18.4684 1.84909 18.4395 1.84909 18.4395C1.84909 18.4395 1.84909 18.4684 1.87649 18.555C1.87649 18.6415 1.90389 18.7281 1.93128 18.8724C1.98608 19.161 2.09567 19.5361 2.34224 19.9689C2.45183 20.1709 2.64361 20.3729 2.83539 20.5749C3.02717 20.7769 3.27375 20.9501 3.54772 21.0944C3.82169 21.2386 4.12306 21.3252 4.45183 21.3829C4.7532 21.4118 5.13676 21.4118 5.49293 21.4118C5.84909 21.4118 6.23265 21.4406 6.53402 21.3829C6.86279 21.3541 7.16416 21.2386 7.43813 21.0944C7.7121 20.9501 7.93128 20.7769 8.15046 20.5749C8.34224 20.3729 8.50663 20.1709 8.64361 19.9689C8.89019 19.5649 9.02717 19.161 9.05457 18.8724C9.08197 18.7281 9.08197 18.6127 9.10937 18.555C9.10937 18.4684 9.13676 18.4395 9.13676 18.4395C9.13676 18.4395 9.13676 18.4684 9.13676 18.555C9.13676 18.6415 9.13676 18.7281 9.13676 18.8724C9.10937 19.161 9.05457 19.5938 8.83539 20.0555C8.7258 20.2864 8.56142 20.5172 8.36964 20.7769C8.17786 21.0078 7.93128 21.2098 7.62991 21.4118C7.32854 21.5849 6.99978 21.7292 6.61621 21.7869C6.17786 21.8446 5.82169 21.8446 5.46553 21.8446Z" fill="#56BEFF"/>
<path id="Vector_12" d="M5.46543 2.13543C5.712 2.13543 5.95858 2.13543 6.17775 2.13543C6.42433 2.13543 6.6709 2.19314 6.89008 2.30857C7.32844 2.51057 7.62981 2.85685 7.79419 3.17427C7.95858 3.4917 8.01337 3.78027 8.01337 3.98226C8.01337 4.06883 8.01337 4.1554 8.01337 4.21312C8.01337 4.27083 8.01337 4.29969 8.01337 4.29969C8.01337 4.29969 8.01337 4.27083 8.01337 4.21312C8.01337 4.1554 7.98597 4.09769 7.95858 4.01112C7.90378 3.83798 7.82159 3.57827 7.62981 3.31856C7.43803 3.05884 7.16406 2.82799 6.78049 2.68371C6.58871 2.59714 6.39693 2.56828 6.17775 2.56828C5.93118 2.56828 5.712 2.56828 5.46543 2.56828C5.21885 2.56828 4.97227 2.56828 4.7531 2.56828C4.53392 2.56828 4.34214 2.59714 4.15036 2.65485C3.7668 2.77028 3.49282 3.02999 3.30104 3.2897C3.10926 3.54941 3.02707 3.80912 2.97227 3.98226C2.94488 4.06883 2.94488 4.1554 2.91748 4.18426C2.91748 4.24197 2.91748 4.27083 2.91748 4.27083C2.91748 4.27083 2.91748 4.24197 2.91748 4.18426C2.91748 4.12655 2.91748 4.06883 2.91748 3.95341C2.91748 3.75141 2.97228 3.46284 3.13666 3.14542C3.30104 2.82799 3.60241 2.48171 4.04077 2.27971C4.23255 2.222 4.47912 2.16428 4.7531 2.13543C4.97227 2.13543 5.21885 2.13543 5.46543 2.13543Z" fill="white"/>
</g>
</g>
</g>
<defs>
<linearGradient id="paint0_linear_16358_2187" x1="12.8201" y1="17.1546" x2="12.8201" y2="1.65843" gradientUnits="userSpaceOnUse">
<stop offset="0.0588235" stop-color="#FF9D00"/>
<stop offset="0.2957" stop-color="#FFA400"/>
<stop offset="0.6377" stop-color="#FFB700"/>
<stop offset="0.6952" stop-color="#FFBB00"/>
</linearGradient>
<linearGradient id="paint1_linear_16358_2187" x1="0.878544" y1="3.08034" x2="10.7809" y2="19.3643" gradientUnits="userSpaceOnUse">
<stop stop-color="#C2E8FF"/>
<stop offset="1" stop-color="#38B3FF"/>
</linearGradient>
<linearGradient id="paint2_linear_16358_2187" x1="5.46332" y1="2.17782" x2="5.46332" y2="17.3711" gradientUnits="userSpaceOnUse">
<stop offset="0.0534759" stop-color="white"/>
<stop offset="0.2359" stop-color="#C0C0C0"/>
<stop offset="0.5477" stop-color="#5A5A5A"/>
<stop offset="0.7645" stop-color="#191919"/>
<stop offset="0.8663"/>
</linearGradient>
<linearGradient id="paint3_linear_16358_2187" x1="1.5759" y1="5.30555" x2="9.50636" y2="18.3468" gradientUnits="userSpaceOnUse">
<stop stop-color="#7ACDFF"/>
<stop offset="0.1573" stop-color="#74C8FC"/>
<stop offset="0.3736" stop-color="#62BAF2"/>
<stop offset="0.6239" stop-color="#45A2E3"/>
<stop offset="0.898" stop-color="#1D82CD"/>
<stop offset="1" stop-color="#0C74C4"/>
</linearGradient>
<linearGradient id="paint4_linear_16358_2187" x1="3.8198" y1="13.7999" x2="6.86079" y2="13.7999" gradientUnits="userSpaceOnUse">
<stop offset="0.1337" stop-color="#EE1F00"/>
<stop offset="0.3007" stop-color="#F12D00"/>
<stop offset="0.6161" stop-color="#F75200"/>
<stop offset="0.9144" stop-color="#FF7B00"/>
</linearGradient>
<linearGradient id="paint5_linear_16358_2187" x1="5.39678" y1="17.0247" x2="5.39678" y2="19.1566" gradientUnits="userSpaceOnUse">
<stop offset="0.0534759" stop-color="#FFFF5F"/>
<stop offset="0.2359" stop-color="#C0C048"/>
<stop offset="0.5477" stop-color="#5A5A21"/>
<stop offset="0.7645" stop-color="#191909"/>
<stop offset="0.8663"/>
</linearGradient>
<linearGradient id="paint6_linear_16358_2187" x1="5.39656" y1="7.76162" x2="5.39656" y2="16.6351" gradientUnits="userSpaceOnUse">
<stop offset="0.0534759" stop-color="#FFFF5F"/>
<stop offset="0.2359" stop-color="#C0C048"/>
<stop offset="0.5477" stop-color="#5A5A21"/>
<stop offset="0.7645" stop-color="#191909"/>
<stop offset="0.8663"/>
</linearGradient>
</defs>
</svg>
