<svg width="24" height="17" viewBox="0 0 24 17" fill="none" xmlns="http://www.w3.org/2000/svg">
<g id="Frame">
<g id="Vector">
<path d="M18.2919 6.696C18.3068 6.568 18.3068 6.41867 18.3068 6.29067C18.3068 3.368 16.5793 1 14.4646 1C12.752 1 11.2926 2.57867 10.8012 4.73333C10.2502 4.15733 9.53537 3.816 8.77588 3.816C7.01862 3.816 5.58898 5.62933 5.58898 7.848C5.58898 8.04 5.60387 8.232 5.61876 8.424C3.53388 8.89333 2 10.5573 2 12.4987C2 14.824 4.18913 16.7227 6.88459 16.7227C7.83768 16.7227 8.71631 16.488 9.46091 16.0827C10.2651 16.616 11.2628 16.9147 12.3351 16.9147C13.3626 16.9147 14.3157 16.6373 15.105 16.1467C15.8049 16.7013 16.6538 17 17.5622 17C20.0194 17 22 14.6747 22 11.816C22 9.256 20.3917 7.10133 18.2919 6.696Z" fill="url(#paint0_radial_106_490)"/>
<path d="M11.1286 5.09603L11.0095 5.60803L10.6967 5.28803C10.2053 4.77603 9.57983 4.4987 8.93947 4.4987C7.43538 4.4987 6.19934 6.0347 6.19934 7.91203C6.19934 8.06137 6.21423 8.23203 6.22912 8.4027L6.2738 8.7867L6.02064 8.8507C4.14424 9.27736 2.83374 10.7067 2.83374 12.3067C2.83374 14.2907 4.7846 15.912 7.16732 15.912C8.00128 15.912 8.80545 15.72 9.50537 15.336L9.60962 15.272L9.71386 15.336C10.4734 15.8267 11.3669 16.0827 12.32 16.0827C13.2284 16.0827 14.0921 15.848 14.8218 15.4L14.941 15.336L15.0601 15.4214C15.7005 15.9334 16.46 16.1894 17.2492 16.1894C19.4086 16.1894 21.1658 14.1627 21.1658 11.6667C21.1658 9.44803 19.7958 7.59203 17.9045 7.20803L17.6513 7.16536L17.6811 6.44003C17.6811 3.90136 16.177 1.83203 14.3453 1.83203C12.8561 1.83203 11.5605 3.1547 11.1286 5.09603Z" fill="url(#paint1_radial_106_490)"/>
<path d="M20.6599 11.5174C20.6599 9.72539 19.4983 8.18939 17.8899 7.89072L17.1155 7.74139C17.1155 7.74139 17.1602 6.33338 17.1602 6.29072C17.1602 4.20005 15.9242 2.51472 14.3903 2.51472C13.601 2.51472 12.8862 2.96272 12.365 3.70939C12.7969 3.32539 13.3181 3.09072 13.8691 3.09072C15.3881 3.09072 16.639 4.77605 16.639 6.86672C16.639 6.90939 16.5943 8.31739 16.5943 8.31739L17.3687 8.46672C18.9771 8.78672 20.1386 10.3014 20.1386 12.0934C20.1386 12.9467 19.8706 13.7147 19.4387 14.3547C20.1833 13.6721 20.6599 12.6481 20.6599 11.5174Z" fill="url(#paint2_radial_106_490)"/>
<path d="M12.5585 6.07733C12.5585 5.992 12.5733 5.90666 12.5733 5.79999C12.5733 3.90133 11.4564 2.36533 10.0864 2.36533C8.96947 2.36533 8.03127 3.38933 7.71854 4.79733C7.36113 4.41333 6.89948 4.2 6.40804 4.2C5.26135 4.2 4.33805 5.37333 4.33805 6.80266C4.33805 6.93066 4.35294 7.05866 4.35294 7.18666C2.99777 7.50666 2 8.57333 2 9.85333C2 11.368 3.41474 12.584 5.15711 12.584C5.76768 12.584 6.34847 12.4347 6.82502 12.1787C7.34624 12.52 7.9866 12.712 8.68652 12.712C9.35666 12.712 9.96724 12.52 10.4736 12.2213C10.9352 12.584 11.4713 12.776 12.067 12.776C13.6605 12.776 14.9412 11.2613 14.9412 9.40533C14.9561 7.74133 13.9136 6.35466 12.5585 6.07733Z" fill="url(#paint3_radial_106_490)"/>
<path d="M7.91191 5.05329L7.83745 5.39462L7.64386 5.18129C7.33112 4.83996 6.91415 4.66929 6.51206 4.66929C5.52919 4.66929 4.73991 5.67196 4.73991 6.88796C4.73991 6.99463 4.73991 7.10129 4.7548 7.20796L4.78459 7.46396L4.60588 7.50662C3.38473 7.74129 2.53589 8.67996 2.53589 9.72529C2.53589 11.0053 3.80171 12.0506 5.35048 12.0506C5.8866 12.0506 6.40782 11.9226 6.86947 11.6666L6.94393 11.624L7.0035 11.6666C7.49494 11.9866 8.07573 12.1573 8.6863 12.1573C9.26709 12.1573 9.83299 12.008 10.3095 11.7093L10.384 11.6666L10.4585 11.7306C10.8754 12.0506 11.3669 12.2213 11.8732 12.2213C13.273 12.2213 14.4197 10.8986 14.4197 9.29862C14.4197 7.86929 13.5262 6.65329 12.3051 6.41862L12.1413 6.39729L12.1561 5.92796C12.1561 4.28529 11.1882 2.94129 9.9968 2.94129C9.02882 2.94129 8.19486 3.77329 7.91191 5.05329Z" fill="url(#paint4_radial_106_490)"/>
<path d="M14.0925 9.19197C14.0925 8.03997 13.333 7.0373 12.3054 6.8453L11.814 6.73864C11.814 6.73864 11.8438 5.8213 11.8438 5.79997C11.8438 4.45597 11.0396 3.34664 10.0567 3.34664C9.55039 3.34664 9.07384 3.6453 8.74622 4.11463C9.02916 3.85863 9.37168 3.73064 9.72909 3.73064C10.712 3.73064 11.5161 4.81863 11.5161 6.18397C11.5161 6.22663 11.4864 7.12264 11.4864 7.12264L11.9778 7.2293C13.0202 7.4213 13.7648 8.42397 13.7648 9.57597C13.7648 10.1306 13.601 10.6213 13.3181 11.0266C13.7797 10.6 14.0925 9.93864 14.0925 9.19197Z" fill="url(#paint5_radial_106_490)"/>
</g>
</g>
<defs>
<radialGradient id="paint0_radial_106_490" cx="0" cy="0" r="1" gradientUnits="userSpaceOnUse" gradientTransform="translate(15.6696 20.5652) scale(15.7122 22.5083)">
<stop offset="0.005618" stop-color="#A9D1EF"/>
<stop offset="0.5393" stop-color="#1998D5"/>
<stop offset="1" stop-color="#0073BB"/>
</radialGradient>
<radialGradient id="paint1_radial_106_490" cx="0" cy="0" r="1" gradientUnits="userSpaceOnUse" gradientTransform="translate(19.0279 6.21686) scale(10.8574 15.8876)">
<stop offset="0.005618" stop-color="#A9D1EF"/>
<stop offset="0.5393" stop-color="#1998D5"/>
<stop offset="1" stop-color="#0073BB"/>
</radialGradient>
<radialGradient id="paint2_radial_106_490" cx="0" cy="0" r="1" gradientUnits="userSpaceOnUse" gradientTransform="translate(16.4939 7.69023) scale(28.7717 23.1003)">
<stop stop-color="#CBEBFB"/>
<stop offset="0.7767" stop-color="#BDCDDA"/>
<stop offset="1" stop-color="#B9C4D0"/>
</radialGradient>
<radialGradient id="paint3_radial_106_490" cx="0" cy="0" r="1" gradientUnits="userSpaceOnUse" gradientTransform="translate(15.6023 20.3945) scale(15.735 22.4161)">
<stop offset="0.005618" stop-color="#A9D1EF"/>
<stop offset="0.5393" stop-color="#1998D5"/>
<stop offset="1" stop-color="#0073BB"/>
</radialGradient>
<radialGradient id="paint4_radial_106_490" cx="0" cy="0" r="1" gradientUnits="userSpaceOnUse" gradientTransform="translate(18.9337 6.06452) scale(10.8531 15.9278)">
<stop offset="0.005618" stop-color="#A9D1EF"/>
<stop offset="0.5393" stop-color="#1998D5"/>
<stop offset="1" stop-color="#0073BB"/>
</radialGradient>
<radialGradient id="paint5_radial_106_490" cx="0" cy="0" r="1" gradientUnits="userSpaceOnUse" gradientTransform="translate(12.5318 6.49765) scale(7.73213 11.0765)">
<stop stop-color="#CBEBFB"/>
<stop offset="0.7767" stop-color="#BDCDDA"/>
<stop offset="1" stop-color="#B9C4D0"/>
</radialGradient>
</defs>
</svg>
